<svg xmlns="http://www.w3.org/2000/svg" xmlns:xlink="http://www.w3.org/1999/xlink" width="113" height="21" viewBox="0 0 113 21">
    <defs>
        <path id="a" d="M.106.133h7.856V16.21H.106z"/>
        <path id="c" d="M0 .084h29.816V16.75H0z"/>
    </defs>
    <g fill="none" fill-rule="evenodd">
        <path fill="#FFF" d="M41.76 11.188a4.022 4.022 0 0 0-.833-.628l-1.11-.638c-.222-.13-.46-.263-.716-.395a7.912 7.912 0 0 1-.715-.417 2.466 2.466 0 0 1-.548-.496c-.148-.184-.22-.4-.22-.65 0-.514.148-.885.45-1.112.3-.227.716-.341 1.243-.341.381 0 .753.108 1.114.32.358.213.664.451.912.715l.926-1.125c-.295-.336-.693-.655-1.202-.956-.505-.303-1.11-.452-1.816-.452-1.025 0-1.83.264-2.41.791-.582.53-.871 1.247-.871 2.158 0 .44.067.812.198 1.123.132.307.315.583.55.826.234.24.518.465.847.672.329.205.693.423 1.086.66.308.191.597.358.87.506.272.145.501.29.693.427.191.14.34.301.452.474.109.178.164.389.164.639 0 .602-.162 1-.485 1.2-.323.198-.778.298-1.365.298-.383 0-.794-.096-1.233-.288-.44-.19-.859-.555-1.253-1.099L35.474 14.5c.424.557.918.99 1.475 1.29.558.3 1.225.45 2.004.45 1.012 0 1.848-.252 2.508-.759.662-.505.993-1.301.993-2.387 0-.439-.06-.809-.175-1.11a2.326 2.326 0 0 0-.519-.795M50.844 12.631c0 .703-.194 1.227-.572 1.571-.383.346-.912.517-1.586.517-.676 0-1.226-.22-1.65-.66-.426-.437-.64-1.011-.64-1.714V8.866c0-.675.214-1.233.64-1.673.424-.44.968-.66 1.627-.66.69 0 1.226.171 1.609.518.378.344.572.862.572 1.551v4.03zm-1.715-7.618c-.6 0-1.154.142-1.661.428a3.16 3.16 0 0 0-1.198 1.201l-.155-1.41h-1.388v15.635h1.696v-5.95c.277.486.655.826 1.133 1.025.476.2.986.298 1.528.298 1.131 0 1.985-.31 2.566-.936.58-.623.87-1.514.87-2.673V8.558c0-1.19-.278-2.078-.827-2.666-.551-.587-1.404-.879-2.564-.879zM60.16 12.607c0 .308-.055.592-.164.847-.11.257-.268.481-.464.67a2.223 2.223 0 0 1-.681.452c-.256.111-.532.164-.823.164-.498 0-.914-.102-1.234-.306-.321-.205-.483-.557-.483-1.056v-1.783l3.848-.815v1.827zm-1.633-7.594c-.28 0-.583.04-.924.119a9.48 9.48 0 0 0-1 .31c-.329.126-.644.264-.945.42a5.557 5.557 0 0 0-.76.452l.618 1.297c.174-.117.386-.24.638-.375a7.736 7.736 0 0 1 1.571-.624c.256-.068.482-.101.673-.101.671 0 1.135.131 1.396.397.255.263.383.74.383 1.43v1.146l-5.542 1.166v2.773c0 .939.272 1.64.816 2.1.541.464 1.284.695 2.22.695.6 0 1.124-.158 1.569-.475a3.731 3.731 0 0 0 1.087-1.176l.11 1.453h1.369V8.338c0-1.146-.26-1.986-.782-2.522-.521-.536-1.352-.803-2.497-.803zM66.447 7.127c.358-.381.846-.571 1.463-.571.427 0 .826.113 1.2.34.374.226.693.526.957.891l1.124-1.1c-.822-1.115-1.915-1.674-3.281-1.674-.543 0-1.038.089-1.485.264a3.295 3.295 0 0 0-1.155.75 3.298 3.298 0 0 0-.75 1.144 3.85 3.85 0 0 0-.265 1.451v4.052c0 1.13.333 2.007 1.002 2.63.667.625 1.568.936 2.698.936.586 0 1.156-.11 1.704-.331a3.724 3.724 0 0 0 1.442-1.036l-1.034-1.122c-.25.324-.56.56-.936.716-.373.154-.75.232-1.132.232-.66 0-1.174-.173-1.542-.516-.368-.346-.55-.849-.55-1.509v-4.05c0-.616.18-1.114.54-1.497M74.516 8.623c0-.63.209-1.134.625-1.505.421-.375.938-.562 1.555-.562.602 0 1.046.153 1.33.46.287.31.475.755.56 1.344l.048.946-4.118.75V8.622zm3.774 5.854a3.443 3.443 0 0 1-1.242.222c-.747 0-1.358-.203-1.828-.606-.469-.403-.704-.979-.704-1.728v-1.08l5.768-1.033v-1.63c0-.542-.087-1.04-.264-1.486a3.32 3.32 0 0 0-.738-1.144 3.247 3.247 0 0 0-1.133-.726 4.062 4.062 0 0 0-1.453-.253c-.559 0-1.07.086-1.544.253a3.609 3.609 0 0 0-1.211.714c-.336.31-.6.685-.792 1.135-.19.447-.285.95-.285 1.507v3.744c0 1.277.366 2.242 1.1 2.896.736.652 1.74.978 3.017.978.676 0 1.295-.106 1.86-.318.566-.215 1.097-.577 1.598-1.092l-.925-1.165c-.425.394-.833.665-1.224.812zM90.278 13.908l-1.807-8.676H86.82l-1.761 8.719-1.607-8.719h-1.716l2.442 10.811h1.761l1.74-8.168 1.741 8.168h1.716l2.423-10.81H91.86zM96.578 8.623c0-.63.208-1.134.626-1.505.42-.375.938-.562 1.554-.562.6 0 1.044.153 1.33.46.286.31.474.755.56 1.344l.046.946-4.116.75V8.622zm3.776 5.854c-.39.149-.802.222-1.244.222-.748 0-1.358-.203-1.83-.606-.468-.403-.702-.979-.702-1.728v-1.08l5.767-1.033v-1.63c0-.542-.089-1.04-.263-1.486a3.287 3.287 0 0 0-.74-1.144 3.24 3.24 0 0 0-1.132-.726 4.058 4.058 0 0 0-1.452-.253c-.559 0-1.072.086-1.541.253-.47.169-.875.406-1.21.714a3.2 3.2 0 0 0-.795 1.135c-.192.447-.287.95-.287 1.507v3.744c0 1.277.368 2.242 1.102 2.896.734.652 1.74.978 3.016.978.675 0 1.296-.106 1.861-.318.565-.215 1.098-.577 1.595-1.092l-.924-1.165c-.426.394-.832.665-1.221.812z"/>
        <g transform="translate(104.836 .03)">
            <mask id="b" fill="#fff">
                <use xlink:href="#a"/>
            </mask>
            <path fill="#FFF" d="M6.288 12.664c0 .66-.196 1.162-.592 1.497-.397.337-.923.507-1.585.507-.716 0-1.281-.23-1.69-.682-.411-.455-.617-1.042-.617-1.76V9.01c0-.321.058-.633.165-.933a2.291 2.291 0 0 1 1.2-1.332c.277-.134.575-.199.9-.199.704 0 1.249.166 1.637.496.389.329.582.847.582 1.55v4.072zm.807-6.77c-.579-.609-1.44-.911-2.585-.911-.557 0-1.069.13-1.54.394a3.495 3.495 0 0 0-1.166 1.06V.133H.106V15.99h1.5l.089-1.28c.309.547.698.93 1.177 1.158.475.228 1.014.342 1.616.342 1.128 0 1.99-.304 2.585-.914.592-.61.889-1.485.889-2.628v-4.14c0-1.147-.287-2.022-.867-2.632z" mask="url(#b)"/>
        </g>
        <path fill="#36BDF7" d="M14.837 15.894a.641.641 0 1 0 0 1.282.641.641 0 0 0 0-1.282"/>
        <g transform="translate(0 2.656)">
            <mask id="d" fill="#fff">
                <use xlink:href="#c"/>
            </mask>
            <path fill="#36BDF7" d="M17.91 11.563a2.415 2.415 0 0 1-2.413-2.418 2.411 2.411 0 0 1 2.413-2.413 2.416 2.416 0 0 1 0 4.831m-6.132 0a2.417 2.417 0 0 1 0-4.831 2.411 2.411 0 0 1 2.413 2.413 2.415 2.415 0 0 1-2.413 2.418M28.06 3.9c-.683-1.08-1.445-1.832-2.142-2.446A26.443 26.443 0 0 0 24.36.212c-.235-.175-.56-.175-.77.029-.26.253-.531.515-.838.81-.445.435-.97.94-1.612 1.55-.524.497-1.126 1.066-1.743 1.645-.216.206-.527.263-.82.21a4.534 4.534 0 0 0-3.36.694.697.697 0 0 1-.774 0 4.53 4.53 0 0 0-3.21-.716c-.298.045-.62-.005-.84-.214a543.27 543.27 0 0 1-1.718-1.618c-.643-.61-1.163-1.116-1.611-1.55L6.224.24C6.018.037 5.692.037 5.457.21 4.955.587 4.446.98 3.9 1.455c-.7.614-1.46 1.365-2.142 2.446C1.075 4.98.47 6.387.191 7.781a9.735 9.735 0 0 0 .028 3.973c.264 1.197.744 2.21 1.293 3.171.546.963 1.162 1.87 1.244 1.824.079-.049-.37-1.056-.729-2.045-.357-.987-.62-1.96-.743-2.903A7.798 7.798 0 0 1 1.43 8.9a11.89 11.89 0 0 1 1.255-3.132c.53-.903 1.119-1.525 1.66-2.03.404-.38.784-.691 1.157-.986.214-.172.523-.126.71.076l.056.063L8.45 5.257c.191.206.168.523-.014.736-.176.21-.335.432-.471.669a.485.485 0 0 1-.657.19l-1.47-.862a.628.628 0 0 0-.775.1c-.22.238-.443.505-.673.868a7.22 7.22 0 0 0-.943 2.255 9.028 9.028 0 0 0-.144 3.054c.129 1.01.45 1.927.825 2.772.375.849.809 1.628.888 1.628.079 0-.2-.78-.425-1.577-.223-.797-.395-1.609-.45-2.394a8.12 8.12 0 0 1 .145-2.186 6.343 6.343 0 0 1 .54-1.576c.099-.2.199-.37.296-.522a.48.48 0 0 1 .692-.118l1.177.893c.258.196.414.495.49.808l.041.156a.3.3 0 0 1-.339.377l-.41-.069a.55.55 0 0 0-.625.39 5.635 5.635 0 0 0-.184.94c-.05.5-.01 1.05.082 1.587.094.54.244 1.072.526 1.748.284.676.704 1.5.786 1.527.08.026-.18-.743-.34-1.394a8.046 8.046 0 0 1-.239-1.62 5.42 5.42 0 0 1 .094-1.344c.055-.26.332-.399.586-.323l1.036.308c.312.093.597.253.867.436a4.524 4.524 0 0 0 2.548.781c.939 0 1.81-.284 2.534-.77a.694.694 0 0 1 .773 0 4.527 4.527 0 0 0 2.534.77c.91 0 1.754-.267 2.466-.726.268-.176.552-.327.859-.417l1.28-.382c.258-.076.535.064.588.323.02.1.037.2.054.307.041.284.062.607.041 1.036a8.48 8.48 0 0 1-.24 1.62c-.159.652-.419 1.421-.339 1.395.08-.027.501-.85.784-1.527a7.654 7.654 0 0 0 .526-1.748 6.14 6.14 0 0 0 .085-1.586 6.063 6.063 0 0 0-.182-.941.555.555 0 0 0-.629-.39l-.574.1c-.225.037-.388-.193-.326-.414.084-.32.242-.624.505-.824l1.355-1.027a.479.479 0 0 1 .69.118c.1.153.197.322.297.522.201.401.406.93.541 1.576.134.645.198 1.402.145 2.186-.053.785-.226 1.597-.45 2.394-.225.798-.503 1.577-.426 1.577.077 0 .511-.78.888-1.628.377-.845.696-1.761.827-2.772a9.048 9.048 0 0 0-.146-3.054 7.163 7.163 0 0 0-.942-2.255 5.84 5.84 0 0 0-.675-.867.628.628 0 0 0-.776-.1l-1.593.93c-.229.137-.52.033-.65-.202a4.507 4.507 0 0 0-.454-.663.554.554 0 0 1 .017-.722l2.25-2.444.059-.063c.187-.202.493-.248.71-.076.37.295.75.606 1.155.985.542.506 1.13 1.128 1.66 2.031A11.963 11.963 0 0 1 28.385 8.9c.25 1.05.267 1.962.146 2.902-.122.943-.385 1.916-.743 2.903-.359.99-.81 1.996-.729 2.045.082.047.696-.861 1.246-1.824.547-.96 1.03-1.974 1.294-3.17a9.787 9.787 0 0 0 .027-3.974c-.28-1.394-.883-2.801-1.566-3.88" mask="url(#d)"/>
        </g>
        <path fill="#36BDF7" d="M12.84 11.266a.641.641 0 1 0 .004 1.283.641.641 0 0 0-.004-1.283M18.976 11.266a.643.643 0 1 0 .001 1.286.643.643 0 0 0-.001-1.286"/>
    </g>
</svg>
