<svg xmlns="http://www.w3.org/2000/svg" width="21" height="21" viewBox="0 0 21 21"><g id="1_icon_account" fill="none" fill-rule="evenodd"><g id="icon_account-copy" fill="#FFF" fill-rule="nonzero"><path d="M10.5652174,5.34782609 C8.64422696,5.34782609 7.08695652,6.90509652 7.08695652,8.82608696 C7.08695652,10.7470774 8.64422696,12.3043478 10.5652174,12.3043478 C12.4862078,12.3043478 14.0434783,10.7470774 14.0434783,8.82608696 C14.0434783,6.90509652 12.4862078,5.34782609 10.5652174,5.34782609 Z M10.5652174,10.9130435 C9.41262313,10.9130435 8.47826087,9.97868122 8.47826087,8.82608696 C8.47826087,7.6734927 9.41262313,6.73913043 10.5652174,6.73913043 C11.7178117,6.73913043 12.6521739,7.6734927 12.6521739,8.82608696 C12.6521739,9.97868122 11.7178117,10.9130435 10.5652174,10.9130435 Z" id="Shape"></path><path d="M10.5,1.33226763e-15 C4.70101013,-1.33226763e-15 0,4.70101013 0,10.5 C-1.33226763e-15,16.2989899 4.70101013,21 10.5,21 C16.2989899,21 21,16.2989899 21,10.5 C21,4.70101013 16.2989899,5.32907052e-15 10.5,1.33226763e-15 Z M5.4,17.91 C5.49443173,17.633916 5.60461247,17.3634724 5.73,17.1 C6.67450168,15.321192 8.53492613,14.2204278 10.5487364,14.2488803 C12.5625466,14.2773329 14.3911299,15.4302182 15.285,17.235 C15.39,17.46 15.48,17.7 15.57,17.94 C14.0726883,18.9525113 12.3075128,19.4956423 10.5,19.5 C8.67825909,19.4983749 6.89989989,18.9439453 5.4,17.91 Z M16.77,16.935 C16.77,16.815 16.68,16.665 16.605,16.53 C15.4429563,14.2770054 13.1323964,12.8492422 10.5975702,12.8178317 C8.06274404,12.7864212 5.71751463,14.1564918 4.5,16.38 C4.40971466,16.5532434 4.33443935,16.7339041 4.275,16.92 C1.65500743,14.363842 0.844121307,10.475542 2.2240061,7.08522893 C3.6038909,3.69491582 6.89963048,1.47804572 10.56,1.47804572 C14.2203695,1.47804572 17.5161091,3.69491582 18.8959939,7.08522893 C20.2758787,10.475542 19.4649926,14.363842 16.845,16.92 L16.77,16.935 Z" id="Shape"></path></g></g></svg>