<svg class="SVG_NavIcon_DomainMain " xmlns="http://www.w3.org/2000/svg" width="21" height="20" viewBox="0 0 21 20"><g id="11_-icon_domens-" fill="none" fill-rule="evenodd"><g id="-icon_domens-copy"><rect id="Rectangle-19" stroke="#FFF" stroke-width="1.3" x="7.65" y="0.65" width="5.7" height="5.7" rx="1"></rect><rect id="Rectangle-19-Copy" stroke="#FFF" stroke-width="1.3" x="16.65" y="15.65" width="3.7" height="3.7" rx="1"></rect><rect id="Rectangle-12" fill="#FFF" x="10" y="8" width="1" height="6" rx="0.5"></rect><rect id="Rectangle-12-Copy-4" fill="#FFF" x="2" y="11" width="1" height="3" rx="0.5"></rect><path d="M3.00378547,11.4945203 L3.00378547,11.9945203 L2.00378547,11.9945203 L2.00378547,11.4945203 C2.00378547,10.6691195 2.67290501,10 3.49830579,10 L17.5,10 C18.3284271,10 19,10.6715729 19,11.5 L19,12.3778799 L18,12.3778799 L18,11.5 C18,11.2238576 17.7761424,11 17.5,11 L3.49830579,11 C3.22518976,11 3.00378547,11.2214043 3.00378547,11.4945203 Z" id="Line-4" fill="#FFF" fill-rule="nonzero"></path><rect id="Rectangle-12-Copy-5" fill="#FFF" x="18" y="11" width="1" height="3" rx="0.5"></rect><rect id="Rectangle-19-Copy-2" stroke="#FFF" stroke-width="1.3" x="8.65" y="15.65" width="3.7" height="3.7" rx="1"></rect><rect id="Rectangle-19-Copy-3" stroke="#FFF" stroke-width="1.3" x="0.65" y="15.65" width="3.7" height="3.7" rx="1"></rect></g></g></svg>