<svg class="SVG_Hosting " xmlns="http://www.w3.org/2000/svg" width="22" height="22" viewBox="0 0 22 22"><g fill="none" fill-rule="evenodd"><path fill="#FFF" d="M1.963 1.412a.57.57 0 0 0-.563.578v4.194c0 .319.252.579.563.579h17.774c.31 0 .563-.26.563-.579V1.99a.571.571 0 0 0-.563-.578H1.963zm0 6.763a.57.57 0 0 0-.563.578v4.194a.57.57 0 0 0 .563.578h17.774c.31 0 .563-.259.563-.578V8.753a.571.571 0 0 0-.563-.578H1.963zm0 6.762a.572.572 0 0 0-.563.579v4.194a.57.57 0 0 0 .563.578h17.774c.31 0 .563-.259.563-.578v-4.194a.572.572 0 0 0-.563-.579H1.963zM19.737 21.7H1.963c-.502 0-1.19 0-1.587-.406C0 20.907 0 20.273 0 19.764v-4.248c0-.476.17-.927.472-1.285A1.978 1.978 0 0 1 0 12.947V8.753c0-.476.17-.927.472-1.284A1.982 1.982 0 0 1 0 6.184V1.99C0 1.455-.002.871.377.486.793.063 1.55 0 1.963 0h17.774c.417 0 1.195 0 1.62.507.302.362.343.953.343 1.483v4.194c0 .476-.168.928-.47 1.285.302.357.47.809.47 1.284v4.194c0 .476-.169.927-.472 1.285.303.357.472.808.472 1.284v4.194c0 .403 0 1.013-.347 1.412-.453.522-1.28.578-1.616.578z"></path><circle cx="4" cy="4" r="1" stroke="#FFF"></circle><circle cx="4" cy="11" r="1" stroke="#FFF"></circle><circle cx="4" cy="18" r="1" stroke="#FFF"></circle><rect width="10" height="1" x="9" y="3" fill="#FFF" rx="0.5"></rect><rect width="10" height="1" x="9" y="10" fill="#FFF" rx="0.5"></rect><rect width="10" height="1" x="9" y="17" fill="#FFF" rx="0.5"></rect></g></svg>